{"title":"Almost Summer (1978) (Bruno Kirby Lee Purcell) VHSRip XVID-pong","uid":15068631,"size":731402032,"categoryP":"video","categoryS":"movies","magnet":"?xt=urn:btih:969819233d393713acb30ce670ba1a4a1dcda8ea&amp;dn=Almost+Summer+%281978%29+%28Bruno+Kirby+Lee+Purcell%29+VHSRip+XVID-pong&amp;tr=udp%3A%2F%2Ftracker.leechers-paradise.org%3A6969&amp;tr=udp%3A%2F%2Fzer0day.ch%3A1337&amp;tr=udp%3A%2F%2Fopen.demonii.com%3A1337&amp;tr=udp%3A%2F%2Ftracker.coppersurfer.tk%3A6969&amp;tr=udp%3A%2F%2Fexodus.desync.com%3A6969","seeders":0,"leechers":1,"uploader":"Pongydog","files":1,"time":1466795481,"description":"http://www.imdb.com/title/tt0077152\r\n\r\n\r\nA high-school election gets nasty. \r\n\r\nDirector: Martin Davidson  \r\n\r\nWriters: Judith Berg,  Sandra Berg  | 2 more credits » \r\n\r\nStars: Bruno Kirby,  Lee Purcell,  John Friedrich  | \r\n\r\nGeneral\r\nComplete name                            : C:Usersuser1VideosAlmost Summer (1978) (Bruno Kirby Lee Purcell) VHSRip XVID-pong.avi\r\nFormat                                   : AVI\r\nFormat/Info                              : Audio Video Interleave\r\nFile size                                : 698 MiB\r\nDuration                                 : 1h 22mn\r\nOverall bit rate                         : 1 175 Kbps\r\nWriting application                      : Lavf57.36.100\r\n\r\nVideo\r\nID                                       : 0\r\nFormat                                   : MPEG-4 Visual\r\nFormat profile                           :   \r\nFormat settings, BVOP                    : No\r\nFormat settings, QPel                    : No\r\nFormat settings, GMC                     : No warppoints\r\nFormat settings, Matrix                  : Default (H.263)\r\nCodec ID                                 : XVID\r\nCodec ID/Hint                            : XviD\r\nDuration                                 : 1h 22mn\r\nBit rate                                 : 1 050 Kbps\r\nWidth                                    : 624 pixels\r\nHeight                                   : 468 pixels\r\nDisplay aspect ratio                     : 4:3\r\nFrame rate                               : 30.000 fps\r\nColor space                              : YUV\r\nChroma subsampling                       : 4:2:0\r\nBit depth                                : 8 bits\r\nScan type                                : Progressive\r\nCompression mode                         : Lossy\r\nBits/(Pixel*Frame)                       : 0.120\r\nStream size                              : 623 MiB (89%)\r\nWriting library                          : XviD 67\r\n\r\nAudio\r\nID                                       : 1\r\nFormat                                   : MPEG Audio\r\nFormat version                           : Version 1\r\nFormat profile                           : Layer 3\r\nCodec ID                                 : 55\r\nCodec ID/Hint                            : MP3\r\nDuration                                 : 1h 22mn\r\nBit rate mode                            : Constant\r\nBit rate                                 : 112 Kbps\r\nChannel(s)                               : 2 channels\r\nSampling rate                            : 44.1 KHz\r\nCompression mode                         : Lossy\r\nStream size                              : 66.5 MiB (10%)\r\nAlignment                                : Aligned on interleaves\r\nInterleave, duration                     : 26 ms (0.78 video frame)\r\nInterleave, preload duration             : 26 ms","torrent":{"xt":"urn:btih:969819233d393713acb30ce670ba1a4a1dcda8ea","amp;dn":"Almost+Summer+%281978%29+%28Bruno+Kirby+Lee+Purcell%29+VHSRip+XVID-pong","amp;tr":["udp%3A%2F%2Ftracker.leechers-paradise.org%3A6969","udp%3A%2F%2Fzer0day.ch%3A1337","udp%3A%2F%2Fopen.demonii.com%3A1337","udp%3A%2F%2Ftracker.coppersurfer.tk%3A6969","udp%3A%2F%2Fexodus.desync.com%3A6969"],"infoHash":"969819233d393713acb30ce670ba1a4a1dcda8ea","infoHashBuffer":{"type":"Buffer","data":[150,152,25,35,61,57,55,19,172,179,12,230,112,186,26,74,29,205,168,234]},"announce":[],"urlList":[]}}